<svg xmlns="http://www.w3.org/2000/svg" width="920" height="560" viewBox="0 0 920 560">
<rect width="100%" height="100%" fill="#ffffff"/>
<style>text{font-family:Arial,Helvetica,sans-serif;fill:#111827}.axis{stroke:#111827;stroke-width:1.4}.grid{stroke:#e5e7eb;stroke-width:1}.label{font-size:15px}.tick{font-size:13px;fill:#374151}.title{font-size:20px;font-weight:700}.legend{font-size:14px}</style>
<text class="title" x="78" y="26">Beehive cover speed curve: multiplier = 1 + (max - 1) * openness^exponent</text>
<line class="grid" x1="78.0" y1="42" x2="78.0" y2="492"/>
<text class="tick" x="78.0" y="515" text-anchor="middle">0%</text>
<line class="grid" x1="159.0" y1="42" x2="159.0" y2="492"/>
<text class="tick" x="159.0" y="515" text-anchor="middle">6%</text>
<line class="grid" x1="240.0" y1="42" x2="240.0" y2="492"/>
<text class="tick" x="240.0" y="515" text-anchor="middle">12%</text>
<line class="grid" x1="321.0" y1="42" x2="321.0" y2="492"/>
<text class="tick" x="321.0" y="515" text-anchor="middle">18%</text>
<line class="grid" x1="483.0" y1="42" x2="483.0" y2="492"/>
<text class="tick" x="483.0" y="515" text-anchor="middle">30%</text>
<line class="grid" x1="685.5" y1="42" x2="685.5" y2="492"/>
<text class="tick" x="685.5" y="515" text-anchor="middle">45%</text>
<line class="grid" x1="888.0" y1="42" x2="888.0" y2="492"/>
<text class="tick" x="888.0" y="515" text-anchor="middle">60%</text>
<line class="grid" x1="78" y1="492.0" x2="888" y2="492.0"/>
<text class="tick" x="66" y="496.0" text-anchor="end">x1.00</text>
<line class="grid" x1="78" y1="379.5" x2="888" y2="379.5"/>
<text class="tick" x="66" y="383.5" text-anchor="end">x1.25</text>
<line class="grid" x1="78" y1="267.0" x2="888" y2="267.0"/>
<text class="tick" x="66" y="271.0" text-anchor="end">x1.50</text>
<line class="grid" x1="78" y1="154.5" x2="888" y2="154.5"/>
<text class="tick" x="66" y="158.5" text-anchor="end">x1.75</text>
<line class="grid" x1="78" y1="42.0" x2="888" y2="42.0"/>
<text class="tick" x="66" y="46.0" text-anchor="end">x2.00</text>
<line class="axis" x1="78" y1="492" x2="888" y2="492"/>
<line class="axis" x1="78" y1="42" x2="78" y2="492"/>
<text class="label" x="483.0" y="538" text-anchor="middle">Cover percentage (lower is more open)</text>
<text class="label" x="22" y="267.0" text-anchor="middle" transform="rotate(-90 22 267.0)">Honey production multiplier</text>
<polyline fill="none" stroke="#2563eb" stroke-width="3" points="78.00,42.00 81.38,45.74 84.75,49.47 88.12,53.18 91.50,56.88 94.88,60.55 98.25,64.22 101.62,67.87 105.00,71.50 108.38,75.12 111.75,78.72 115.12,82.30 118.50,85.88 121.88,89.43 125.25,92.97 128.62,96.49 132.00,100.00 135.38,103.49 138.75,106.97 142.12,110.43 145.50,113.88 148.88,117.30 152.25,120.72 155.62,124.12 159.00,127.50 162.38,130.87 165.75,134.22 169.12,137.55 172.50,140.88 175.88,144.18 179.25,147.47 182.62,150.74 186.00,154.00 189.38,157.24 192.75,160.47 196.12,163.68 199.50,166.88 202.88,170.05 206.25,173.22 209.62,176.37 213.00,179.50 216.38,182.62 219.75,185.72 223.12,188.80 226.50,191.88 229.88,194.93 233.25,197.97 236.62,200.99 240.00,204.00 243.38,206.99 246.75,209.97 250.12,212.93 253.50,215.88 256.88,218.80 260.25,221.72 263.62,224.62 267.00,227.50 270.38,230.37 273.75,233.22 277.12,236.05 280.50,238.88 283.88,241.68 287.25,244.47 290.62,247.24 294.00,250.00 297.38,252.74 300.75,255.47 304.12,258.18 307.50,260.88 310.88,263.55 314.25,266.22 317.62,268.87 321.00,271.50 324.38,274.12 327.75,276.72 331.12,279.30 334.50,281.88 337.88,284.43 341.25,286.97 344.62,289.49 348.00,292.00 351.38,294.49 354.75,296.97 358.12,299.43 361.50,301.87 364.88,304.30 368.25,306.72 371.62,309.12 375.00,311.50 378.38,313.87 381.75,316.22 385.12,318.55 388.50,320.88 391.88,323.18 395.25,325.47 398.62,327.74 402.00,330.00 405.38,332.24 408.75,334.47 412.12,336.68 415.50,338.88 418.88,341.05 422.25,343.22 425.62,345.37 429.00,347.50 432.38,349.62 435.75,351.72 439.12,353.80 442.50,355.88 445.88,357.93 449.25,359.97 452.62,361.99 456.00,364.00 459.38,365.99 462.75,367.97 466.12,369.93 469.50,371.88 472.88,373.80 476.25,375.72 479.62,377.62 483.00,379.50 486.38,381.37 489.75,383.22 493.12,385.05 496.50,386.88 499.88,388.68 503.25,390.47 506.62,392.24 510.00,394.00 513.38,395.74 516.75,397.47 520.12,399.18 523.50,400.88 526.88,402.55 530.25,404.22 533.62,405.87 537.00,407.50 540.38,409.12 543.75,410.72 547.12,412.30 550.50,413.88 553.88,415.43 557.25,416.97 560.62,418.49 564.00,420.00 567.38,421.49 570.75,422.97 574.12,424.43 577.50,425.88 580.88,427.30 584.25,428.72 587.62,430.12 591.00,431.50 594.38,432.87 597.75,434.22 601.12,435.55 604.50,436.88 607.88,438.18 611.25,439.47 614.62,440.74 618.00,442.00 621.38,443.24 624.75,444.47 628.12,445.68 631.50,446.88 634.88,448.05 638.25,449.22 641.62,450.37 645.00,451.50 648.38,452.62 651.75,453.72 655.12,454.80 658.50,455.88 661.88,456.93 665.25,457.97 668.62,458.99 672.00,460.00 675.38,460.99 678.75,461.97 682.12,462.93 685.50,463.88 688.88,464.80 692.25,465.72 695.62,466.62 699.00,467.50 702.38,468.37 705.75,469.22 709.12,470.05 712.50,470.88 715.88,471.68 719.25,472.47 722.62,473.24 726.00,474.00 729.38,474.74 732.75,475.47 736.12,476.18 739.50,476.88 742.88,477.55 746.25,478.22 749.62,478.87 753.00,479.50 756.38,480.12 759.75,480.72 763.12,481.30 766.50,481.88 769.88,482.43 773.25,482.97 776.62,483.49 780.00,484.00 783.38,484.49 786.75,484.97 790.12,485.43 793.50,485.88 796.88,486.30 800.25,486.72 803.62,487.12 807.00,487.50 810.38,487.87 813.75,488.22 817.12,488.55 820.50,488.88 823.88,489.18 827.25,489.47 830.62,489.74 834.00,490.00 837.38,490.24 840.75,490.47 844.12,490.68 847.50,490.88 850.88,491.05 854.25,491.22 857.62,491.37 861.00,491.50 864.38,491.62 867.75,491.72 871.12,491.80 874.50,491.88 877.88,491.93 881.25,491.97 884.62,491.99 888.00,492.00"/>
<polyline fill="none" stroke="#16a34a" stroke-width="3" points="78.00,42.00 81.38,46.67 84.75,51.32 88.12,55.93 91.50,60.52 94.88,65.07 98.25,69.60 101.62,74.10 105.00,78.57 108.38,83.01 111.75,87.42 115.12,91.80 118.50,96.16 121.88,100.48 125.25,104.78 128.62,109.05 132.00,113.29 135.38,117.50 138.75,121.69 142.12,125.84 145.50,129.97 148.88,134.07 152.25,138.14 155.62,142.19 159.00,146.20 162.38,150.19 165.75,154.15 169.12,158.09 172.50,161.99 175.88,165.87 179.25,169.72 182.62,173.54 186.00,177.34 189.38,181.11 192.75,184.85 196.12,188.56 199.50,192.25 202.88,195.91 206.25,199.54 209.62,203.15 213.00,206.73 216.38,210.28 219.75,213.81 223.12,217.31 226.50,220.78 229.88,224.22 233.25,227.64 236.62,231.04 240.00,234.40 243.38,237.75 246.75,241.06 250.12,244.35 253.50,247.61 256.88,250.85 260.25,254.06 263.62,257.25 267.00,260.41 270.38,263.54 273.75,266.65 277.12,269.73 280.50,272.79 283.88,275.82 287.25,278.83 290.62,281.81 294.00,284.76 297.38,287.69 300.75,290.60 304.12,293.48 307.50,296.34 310.88,299.17 314.25,301.98 317.62,304.76 321.00,307.52 324.38,310.25 327.75,312.96 331.12,315.64 334.50,318.30 337.88,320.94 341.25,323.55 344.62,326.14 348.00,328.70 351.38,331.24 354.75,333.76 358.12,336.25 361.50,338.72 364.88,341.16 368.25,343.58 371.62,345.98 375.00,348.35 378.38,350.71 381.75,353.03 385.12,355.34 388.50,357.62 391.88,359.88 395.25,362.11 398.62,364.33 402.00,366.52 405.38,368.68 408.75,370.83 412.12,372.95 415.50,375.05 418.88,377.13 422.25,379.18 425.62,381.21 429.00,383.22 432.38,385.21 435.75,387.18 439.12,389.12 442.50,391.05 445.88,392.95 449.25,394.83 452.62,396.69 456.00,398.52 459.38,400.34 462.75,402.13 466.12,403.90 469.50,405.65 472.88,407.39 476.25,409.09 479.62,410.78 483.00,412.45 486.38,414.10 489.75,415.72 493.12,417.33 496.50,418.91 499.88,420.48 503.25,422.02 506.62,423.55 510.00,425.05 513.38,426.54 516.75,428.00 520.12,429.45 523.50,430.87 526.88,432.28 530.25,433.66 533.62,435.03 537.00,436.38 540.38,437.70 543.75,439.01 547.12,440.30 550.50,441.57 553.88,442.82 557.25,444.05 560.62,445.27 564.00,446.46 567.38,447.64 570.75,448.80 574.12,449.94 577.50,451.06 580.88,452.16 584.25,453.25 587.62,454.32 591.00,455.37 594.38,456.40 597.75,457.41 601.12,458.41 604.50,459.39 607.88,460.35 611.25,461.29 614.62,462.22 618.00,463.13 621.38,464.03 624.75,464.90 628.12,465.76 631.50,466.61 634.88,467.43 638.25,468.24 641.62,469.04 645.00,469.82 648.38,470.58 651.75,471.33 655.12,472.06 658.50,472.77 661.88,473.47 665.25,474.15 668.62,474.82 672.00,475.48 675.38,476.11 678.75,476.74 682.12,477.34 685.50,477.94 688.88,478.52 692.25,479.08 695.62,479.63 699.00,480.17 702.38,480.69 705.75,481.19 709.12,481.69 712.50,482.17 715.88,482.63 719.25,483.09 722.62,483.52 726.00,483.95 729.38,484.36 732.75,484.76 736.12,485.15 739.50,485.52 742.88,485.89 746.25,486.23 749.62,486.57 753.00,486.90 756.38,487.21 759.75,487.51 763.12,487.80 766.50,488.08 769.88,488.35 773.25,488.60 776.62,488.85 780.00,489.08 783.38,489.30 786.75,489.51 790.12,489.72 793.50,489.91 796.88,490.09 800.25,490.26 803.62,490.42 807.00,490.58 810.38,490.72 813.75,490.86 817.12,490.98 820.50,491.10 823.88,491.21 827.25,491.31 830.62,491.40 834.00,491.48 837.38,491.56 840.75,491.63 844.12,491.69 847.50,491.75 850.88,491.80 854.25,491.84 857.62,491.88 861.00,491.91 864.38,491.93 867.75,491.96 871.12,491.97 874.50,491.98 877.88,491.99 881.25,492.00 884.62,492.00 888.00,492.00"/>
<polyline fill="none" stroke="#dc2626" stroke-width="3" points="78.00,42.00 81.38,47.60 84.75,53.16 88.12,58.66 91.50,64.13 94.88,69.54 98.25,74.91 101.62,80.24 105.00,85.52 108.38,90.75 111.75,95.94 115.12,101.08 118.50,106.18 121.88,111.24 125.25,116.25 128.62,121.21 132.00,126.13 135.38,131.01 138.75,135.85 142.12,140.64 145.50,145.39 148.88,150.09 152.25,154.75 155.62,159.37 159.00,163.95 162.38,168.49 165.75,172.98 169.12,177.43 172.50,181.84 175.88,186.21 179.25,190.54 182.62,194.82 186.00,199.07 189.38,203.27 192.75,207.44 196.12,211.56 199.50,215.64 202.88,219.69 206.25,223.69 209.62,227.66 213.00,231.58 216.38,235.47 219.75,239.32 223.12,243.13 226.50,246.90 229.88,250.63 233.25,254.32 236.62,257.98 240.00,261.60 243.38,265.18 246.75,268.73 250.12,272.23 253.50,275.70 256.88,279.14 260.25,282.53 263.62,285.89 267.00,289.22 270.38,292.50 273.75,295.76 277.12,298.97 280.50,302.16 283.88,305.30 287.25,308.41 290.62,311.49 294.00,314.53 297.38,317.54 300.75,320.51 304.12,323.45 307.50,326.36 310.88,329.23 314.25,332.07 317.62,334.88 321.00,337.65 324.38,340.39 327.75,343.10 331.12,345.77 334.50,348.41 337.88,351.03 341.25,353.60 344.62,356.15 348.00,358.67 351.38,361.15 354.75,363.60 358.12,366.03 361.50,368.42 364.88,370.78 368.25,373.11 371.62,375.41 375.00,377.68 378.38,379.92 381.75,382.14 385.12,384.32 388.50,386.47 391.88,388.60 395.25,390.69 398.62,392.76 402.00,394.80 405.38,396.81 408.75,398.79 412.12,400.75 415.50,402.68 418.88,404.58 422.25,406.45 425.62,408.30 429.00,410.12 432.38,411.91 435.75,413.68 439.12,415.42 442.50,417.13 445.88,418.82 449.25,420.48 452.62,422.12 456.00,423.73 459.38,425.32 462.75,426.88 466.12,428.42 469.50,429.94 472.88,431.42 476.25,432.89 479.62,434.33 483.00,435.75 486.38,437.14 489.75,438.52 493.12,439.86 496.50,441.19 499.88,442.49 503.25,443.77 506.62,445.03 510.00,446.27 513.38,447.48 516.75,448.67 520.12,449.84 523.50,450.99 526.88,452.12 530.25,453.23 533.62,454.32 537.00,455.38 540.38,456.43 543.75,457.46 547.12,458.46 550.50,459.45 553.88,460.41 557.25,461.36 560.62,462.29 564.00,463.20 567.38,464.09 570.75,464.96 574.12,465.82 577.50,466.65 580.88,467.47 584.25,468.27 587.62,469.05 591.00,469.82 594.38,470.56 597.75,471.30 601.12,472.01 604.50,472.71 607.88,473.39 611.25,474.05 614.62,474.70 618.00,475.33 621.38,475.95 624.75,476.55 628.12,477.14 631.50,477.71 634.88,478.27 638.25,478.81 641.62,479.34 645.00,479.85 648.38,480.35 651.75,480.83 655.12,481.31 658.50,481.76 661.88,482.21 665.25,482.64 668.62,483.06 672.00,483.47 675.38,483.86 678.75,484.24 682.12,484.61 685.50,484.97 688.88,485.31 692.25,485.65 695.62,485.97 699.00,486.28 702.38,486.58 705.75,486.87 709.12,487.15 712.50,487.42 715.88,487.68 719.25,487.93 722.62,488.17 726.00,488.40 729.38,488.62 732.75,488.83 736.12,489.03 739.50,489.23 742.88,489.41 746.25,489.59 749.62,489.76 753.00,489.92 756.38,490.07 759.75,490.21 763.12,490.35 766.50,490.48 769.88,490.60 773.25,490.72 776.62,490.83 780.00,490.93 783.38,491.03 786.75,491.12 790.12,491.21 793.50,491.29 796.88,491.36 800.25,491.43 803.62,491.49 807.00,491.55 810.38,491.60 813.75,491.65 817.12,491.70 820.50,491.74 823.88,491.78 827.25,491.81 830.62,491.84 834.00,491.87 837.38,491.89 840.75,491.91 844.12,491.93 847.50,491.94 850.88,491.96 854.25,491.97 857.62,491.98 861.00,491.98 864.38,491.99 867.75,491.99 871.12,492.00 874.50,492.00 877.88,492.00 881.25,492.00 884.62,492.00 888.00,492.00"/>
<circle cx="78.0" cy="42.0" r="3.5" fill="#2563eb"/>
<circle cx="159.0" cy="127.5" r="3.5" fill="#2563eb"/>
<circle cx="240.0" cy="204.0" r="3.5" fill="#2563eb"/>
<circle cx="321.0" cy="271.5" r="3.5" fill="#2563eb"/>
<circle cx="483.0" cy="379.5" r="3.5" fill="#2563eb"/>
<circle cx="888.0" cy="492.0" r="3.5" fill="#2563eb"/>
<circle cx="78.0" cy="42.0" r="3.5" fill="#16a34a"/>
<circle cx="159.0" cy="146.2" r="3.5" fill="#16a34a"/>
<circle cx="240.0" cy="234.4" r="3.5" fill="#16a34a"/>
<circle cx="321.0" cy="307.5" r="3.5" fill="#16a34a"/>
<circle cx="483.0" cy="412.5" r="3.5" fill="#16a34a"/>
<circle cx="888.0" cy="492.0" r="3.5" fill="#16a34a"/>
<circle cx="78.0" cy="42.0" r="3.5" fill="#dc2626"/>
<circle cx="159.0" cy="163.9" r="3.5" fill="#dc2626"/>
<circle cx="240.0" cy="261.6" r="3.5" fill="#dc2626"/>
<circle cx="321.0" cy="337.7" r="3.5" fill="#dc2626"/>
<circle cx="483.0" cy="435.8" r="3.5" fill="#dc2626"/>
<circle cx="888.0" cy="492.0" r="3.5" fill="#dc2626"/>
<line x1="665" y1="72" x2="699" y2="72" stroke="#2563eb" stroke-width="4"/>
<text class="legend" x="709" y="77">exponent 2</text>
<line x1="665" y1="98" x2="699" y2="98" stroke="#16a34a" stroke-width="4"/>
<text class="legend" x="709" y="103">exponent 2.5</text>
<line x1="665" y1="124" x2="699" y2="124" stroke="#dc2626" stroke-width="4"/>
<text class="legend" x="709" y="129">exponent 3</text>
<text class="tick" x="78" y="555">Assumption: max cover threshold 60%, max multiplier x2 at 0% cover.</text>
</svg>